:SAMPLES-PER-SECOND 30
:FULLY-SPECIFIED
:DEGREES
555
root  -55.0178 5.61986 -21.0554 154.519 -59.9979 -162.573
RightUpLeg  -82.4268 -6.56041 6.20641
RightLeg  161.771 10.9987 -4.12256
RightFoot  -56.7297 5.83848 11.4042
RightToes  6.15914 0.0155971 0.0597768
Spine  26.8565 1.47043 4.10943
Spine1  42.4774 1.61013 6.44029
HEad  -117.041 -54.2332 50.8758
LeftShoulder1  -1.94126e-019 -3.10601e-018 -2.51263e-017
LeftArm  47.222 -65.2379 -132.161
LeftForeArm  55.145 -4.03946 -0.66547
LeftHand  -0.583385 -3.71131 7.70058
RightShoulder  -4.96962e-017 0 -2.36833e-017
RightArm  11.1424 73.1481 106.918
RightForeArm  78.5556 1.37516 0.155714
RightHand  -0.244848 -2.77021 -10.4339
LeftUpLeg  -82.554 8.97161 26.8291
LeftLeg  165.619 -6.43699 2.09668
LeftFoot  -55.8642 -8.46146 -15.7242
LeftToes  17.7908 2.03064e-006 1.83538e-008
556
root  -55.0111 5.61836 -21.081 154.528 -60.192 -162.565
RightUpLeg  -82.3151 -6.67416 6.35833
RightLeg  161.817 11.1522 -4.17275
RightFoot  -56.976 5.94775 11.5501
RightToes  6.44557 0.0154145 0.0617603
Spine  26.8799 1.43542 4.14994
Spine1  42.5132 1.57744 6.47216
HEad  -116.473 -54.0578 50.41
LeftShoulder1  -1.94126e-019 -3.10601e-018 -2.51263e-017
LeftArm  47.4507 -65.2246 -132.404
LeftForeArm  55.2127 -4.03277 -0.664221
LeftHand  -0.582217 -3.67629 7.71322
RightShoulder  -4.96962e-017 0 -2.36833e-017
RightArm  10.7132 73.2077 106.528
RightForeArm  78.4952 1.44873 0.168703
RightHand  -0.248156 -2.72372 -10.4036
LeftUpLeg  -82.6712 8.88099 26.9927
LeftLeg  165.563 -6.29508 2.05748
LeftFoot  -55.7022 -8.36267 -15.5935
LeftToes  17.2583 2.03064e-006 1.83538e-008
557
root  -55.0054 5.60885 -21.113 154.654 -60.3819 -162.706
RightUpLeg  -82.2341 -6.72377 6.4878
RightLeg  161.903 11.3517 -4.2314
RightFoot  -57.2661 6.09547 11.7547
RightToes  6.98858 0.0152399 0.067021
Spine  26.9042 1.41744 4.14701
Spine1  42.5673 1.61899 6.40698
HEad  -116.042 -53.8844 50.0158
LeftShoulder1  -1.94126e-019 -3.10601e-018 -2.51263e-017
LeftArm  47.8916 -65.2926 -132.93
LeftForeArm  55.3874 -3.72284 -0.608677
LeftHand  -0.605847 -3.75411 7.95166
RightShoulder  -4.96962e-017 0 -2.36833e-017
RightArm  10.3578 73.2132 106.237
RightForeArm  78.5027 1.56858 0.189553
RightHand  -0.255491 -2.56433 -10.1402
LeftUpLeg  -82.7291 8.86076 27.1849
LeftLeg  165.531 -6.00638 1.96742
LeftFoot  -55.5702 -8.20157 -15.3354
LeftToes  16.704 2.03064e-006 1.83538e-008
558
root  -55 5.5996 -21.1395 155.146 -60.5035 -163.25
RightUpLeg  -82.2612 -6.57584 6.50411
RightLeg  161.997 11.5783 -4.29815
RightFoot  -57.3724 6.22227 11.9617
RightToes  7.13444 0.0150735 0.0705225
Spine  26.9293 1.45796 4.04347
Spine1  42.6284 1.82204 6.17236
HEad  -115.679 -53.6649 49.6695
LeftShoulder1  -1.94126e-019 -3.10601e-018 -2.51263e-017
LeftArm  48.1659 -65.3416 -133.302
LeftForeArm  55.521 -3.52261 -0.573356
LeftHand  -0.603994 -3.67956 7.9887
RightShoulder  -4.96962e-017 0 -2.36833e-017
RightArm  10.1059 73.2014 106.213
RightForeArm  78.7285 1.52152 0.180546
RightHand  -0.264363 -2.47819 -10.209
LeftUpLeg  -82.6327 8.9288 27.1523
LeftLeg  165.475 -5.86325 1.92707
LeftFoot  -55.5273 -8.1016 -15.1619
LeftToes  16.3972 2.03064e-006 1.83538e-008
559
root  -55.001 5.59489 -21.1644 155.161 -60.6414 -163.239
RightUpLeg  -82.1414 -6.66069 6.60359
RightLeg  162.054 11.6534 -4.31393
RightFoot  -57.6482 6.30258 12.0428
RightToes  7.59269 0.0149157 0.0728816
Spine  26.9391 1.43578 4.0581
Spine1  42.6282 1.7541 6.23382
HEad  -115.385 -53.5394 49.3515
LeftShoulder1  -1.94126e-019 -3.10601e-018 -2.51263e-017
LeftArm  48.2232 -65.2853 -133.374
LeftForeArm  55.5767 -3.63582 -0.593855
LeftHand  -0.583222 -3.58464 7.79917
RightShoulder  -4.96962e-017 0 -2.36833e-017
RightArm  10.0982 73.2125 106.213
RightForeArm  78.6726 1.46297 0.170386
RightHand  -0.267691 -2.40182 -10.0878
LeftUpLeg  -82.6756 8.81322 27.2766
LeftLeg  165.466 -5.83421 1.9186
LeftFoot  -55.4359 -8.08186 -15.1541
LeftToes  16.0269 2.03064e-006 1.83538e-008
